<svg width="28.000000" height="35.999252" viewBox="0 0 28 35.9993" fill="none" xmlns="http://www.w3.org/2000/svg" xmlns:xlink="http://www.w3.org/1999/xlink">
	<desc>
			Created with Pixso.
	</desc>
	<defs/>
	<path id="Vector" d="M14.576 35.817L14.58 35.815L14.59 35.808L14.62 35.785L14.738 35.7C14.838 35.626 14.984 35.518 15.168 35.376C15.536 35.094 16.058 34.679 16.681 34.146C18.3164 32.7481 19.8456 31.2306 21.256 29.606C24.564 25.78 28 20.32 28 14.076C28 10.346 26.526 6.766 23.902 4.126C22.605 2.81939 21.0625 1.78218 19.363 1.07407C17.6637 0.365967 15.8411 0.000938416 14 0C12.1591 0.000808716 10.3364 0.365677 8.63708 1.07361C6.93762 1.78155 5.39502 2.81857 4.09802 4.125C1.47144 6.77104 -0.00170898 10.3487 0 14.077C0 20.32 3.43604 25.78 6.74402 29.606C8.15442 31.2306 9.68359 32.7481 11.319 34.146C11.943 34.679 12.464 35.094 12.832 35.376C13.0125 35.5151 13.1948 35.6518 13.379 35.786L13.411 35.808L13.42 35.815L13.424 35.817C13.769 36.06 14.231 36.06 14.576 35.817ZM19 14C19 15.3261 18.4733 16.5979 17.5355 17.5355C16.5979 18.4732 15.326 19 14 19C12.674 19 11.4021 18.4732 10.4645 17.5355C9.52673 16.5979 9 15.3261 9 14C9 12.6739 9.52673 11.4021 10.4645 10.4645C11.4021 9.52678 12.674 9 14 9C15.326 9 16.5979 9.52678 17.5355 10.4645C18.4733 11.4021 19 12.6739 19 14Z" fill="#074C73" fill-opacity="1.000000" fill-rule="evenodd"/>
</svg>
