<svg width="21.000000" height="21.000000" viewBox="0 0 21 21" fill="none" xmlns="http://www.w3.org/2000/svg" xmlns:xlink="http://www.w3.org/1999/xlink">
	<desc>
			Created with Pixso.
	</desc>
	<defs>
		<clipPath id="clip106_163">
			<rect id="mingcute:phone-fill" width="21.000000" height="21.000000" fill="white" fill-opacity="0"/>
		</clipPath>
	</defs>
	<rect id="mingcute:phone-fill" width="21.000000" height="21.000000" fill="#FFFFFF" fill-opacity="0"/>
	<g clip-path="url(#clip106_163)">
		<path id="Vector" d="M14.483 19.3665C13.223 19.3201 9.6521 18.8267 5.91235 15.0879C2.17346 11.3481 1.68091 7.77808 1.63367 6.51709C1.5636 4.5957 3.0354 2.72925 4.73547 2.00049C4.94019 1.91211 5.16443 1.87842 5.38611 1.90283C5.60779 1.92725 5.81921 2.00879 5.99988 2.13965C7.3999 3.15967 8.36584 4.70337 9.19543 5.91699C9.37793 6.18359 9.45593 6.50806 9.41467 6.82837C9.37329 7.14893 9.21558 7.44312 8.97144 7.65454L7.26428 8.92261C7.18176 8.98218 7.12378 9.06958 7.10083 9.1687C7.078 9.26782 7.09192 9.37183 7.14001 9.46143C7.52673 10.1641 8.21448 11.2107 9.00195 11.998C9.79041 12.7856 10.8859 13.5188 11.6375 13.9495C11.7317 14.0022 11.8427 14.0171 11.9475 13.9907C12.0522 13.9644 12.1431 13.8989 12.201 13.8076L13.3123 12.1162C13.5166 11.845 13.818 11.6631 14.1533 11.6089C14.4886 11.5547 14.8319 11.6326 15.1112 11.8257C16.3424 12.678 17.7792 13.6274 18.8309 14.9741C18.9723 15.156 19.0623 15.3726 19.0913 15.6011C19.1205 15.8296 19.0876 16.0618 18.9962 16.2734C18.2639 17.9822 16.4106 19.4375 14.483 19.3665Z" fill="#FFFFFF" fill-opacity="1.000000" fill-rule="evenodd"/>
	</g>
</svg>
