<svg width="48.000000" height="48.000000" viewBox="0 0 48 48" fill="none" xmlns="http://www.w3.org/2000/svg" xmlns:xlink="http://www.w3.org/1999/xlink">
	<desc>
			Created with Pixso.
	</desc>
	<defs>
		<clipPath id="clip106_89">
			<rect id="mingcute:safe-lock-fill" width="48.000000" height="48.000000" fill="white" fill-opacity="0"/>
		</clipPath>
	</defs>
	<rect id="mingcute:safe-lock-fill" width="48.000000" height="48.000000" fill="#FFFFFF" fill-opacity="0"/>
	<g clip-path="url(#clip106_89)">
		<path id="Vector" d="M22.5959 4.39C23.5012 4.05067 24.4988 4.05067 25.4041 4.39L39.4041 9.64C40.1666 9.92586 40.8239 10.4377 41.2877 11.1071C41.7516 11.7765 42.0001 12.5716 42 13.386L42 24.112C42.0001 27.4548 41.0692 30.7317 39.3119 33.5753C37.5544 36.4189 35.0399 38.717 32.05 40.212L25.342 43.564C24.9253 43.7724 24.4658 43.8809 24 43.8809C23.5342 43.8809 23.0747 43.7724 22.658 43.564L15.95 40.21C12.9601 38.715 10.4456 36.4169 8.68811 33.5733C6.93079 30.7297 5.99988 27.4528 6 24.11L6 13.388C5.99951 12.5732 6.2478 11.7777 6.71179 11.1079C7.17566 10.4381 7.83301 9.92598 8.59595 9.64L22.5959 4.39ZM26 23.464C26.7626 23.0237 27.3584 22.3441 27.6954 21.5306C28.0323 20.7171 28.0914 19.8152 27.8635 18.9647C27.6356 18.1142 27.1334 17.3627 26.4349 16.8266C25.7365 16.2906 24.8805 16 24 16C23.1195 16 22.2635 16.2906 21.5651 16.8266C20.8666 17.3627 20.3644 18.1142 20.1365 18.9647C19.9086 19.8152 19.9677 20.7171 20.3046 21.5306C20.6416 22.3441 21.2374 23.0237 22 23.464L22 30C22 30.5304 22.2107 31.0391 22.5858 31.4142C22.9608 31.7893 23.4696 32 24 32C24.5304 32 25.0392 31.7893 25.4142 31.4142C25.7893 31.0391 26 30.5304 26 30L26 23.464Z" fill="#074C73" fill-opacity="1.000000" fill-rule="evenodd"/>
	</g>
</svg>
